<?xml version="1.0" encoding="iso-8859-1"?>
<!-- Uploaded to: SVG Repo, www.svgrepo.com, Generator: SVG Repo Mixer Tools -->
<!DOCTYPE svg PUBLIC "-//W3C//DTD SVG 1.1//EN" "http://www.w3.org/Graphics/SVG/1.1/DTD/svg11.dtd">
<svg fill="#000000" height="800px" width="800px" version="1.1" id="Capa_1" xmlns="http://www.w3.org/2000/svg" xmlns:xlink="http://www.w3.org/1999/xlink" 
	 viewBox="0 0 512 512" xml:space="preserve">
<g>
	<path d="M100.186,272.245c0,28.42,10.085,57.209,27.67,78.987c18.538,22.958,42.761,35.602,68.206,35.602
		c25.441,0,49.635-12.637,68.125-35.583c17.526-21.75,27.578-50.528,27.578-78.955V264c0-4.418-3.582-8-8-8s-8,3.582-8,8v8.295
		c0,24.84-8.761,49.959-24.037,68.916c-15.392,19.103-35.161,29.623-55.666,29.623c-20.515,0-40.316-10.531-55.757-29.654
		c-15.328-18.982-24.118-44.108-24.118-68.935v-7.127c0-21.307,11.795-50.01,16.382-60.363c29.741-3.409,58.625-2.487,85.917,2.772
		c0.511,0.099,1.021,0.146,1.522,0.146c3.758,0,7.109-2.661,7.847-6.488c0.836-4.338-2.003-8.533-6.342-9.369
		c-30.307-5.84-62.395-6.651-95.374-2.407c-0.018,0.002-0.034,0.007-0.051,0.009c-0.162,0.022-0.322,0.055-0.482,0.087
		c-0.104,0.021-0.211,0.037-0.314,0.061c-0.108,0.026-0.213,0.061-0.32,0.092c-0.906,0.257-1.743,0.657-2.479,1.187
		c-0.002,0.002-0.005,0.003-0.008,0.005c-0.075,0.054-0.143,0.115-0.216,0.172c-0.51,0.394-0.978,0.849-1.387,1.369
		c-0.018,0.023-0.039,0.044-0.057,0.067c-0.081,0.106-0.154,0.22-0.23,0.33c-0.075,0.108-0.154,0.214-0.224,0.326
		c-0.05,0.08-0.093,0.165-0.14,0.248c-0.087,0.152-0.174,0.303-0.252,0.46c-0.007,0.014-0.016,0.027-0.023,0.042
		c-0.427,0.885-5.949,12.41-11.048,27.511c-2.654-14.919-5.041-31.48-5.041-42.806c0-29.059,16.68-42.066,33.21-42.066
		c0.595,0,1.173-0.07,1.731-0.193c0.572,0.127,1.156,0.194,1.741,0.194c1.686,0,3.387-0.531,4.833-1.63
		c13.29-10.095,31.032-12.97,57.527-9.324c4.373,0.601,8.414-2.457,9.016-6.834c0.603-4.377-2.458-8.414-6.834-9.016
		c-20.202-2.781-45.891-3.979-67.197,10.845c-0.269-0.027-0.541-0.041-0.817-0.041c-28.975,0-49.21,23.878-49.21,58.066
		c0,25.585,10.626,72.951,12.319,80.333V272.245z"/>
	<path d="M340.732,407.134c-0.161-0.045-0.322-0.084-0.485-0.12l-65.228-13.946c-6.513-1.448-7.019-8.417-7.019-10.518v-3.716
		c0-4.418-3.582-8-8-8s-8,3.582-8,8v3.716c0,12.412,6.746,22.206,17.429,25.566c-17.303,19.682-44.477,31.559-73.429,31.559
		c-28.949,0-56.124-11.878-73.428-31.558c10.457-3.308,17.094-13.107,17.094-25.567v-3.716c0-4.418-3.582-8-8-8s-8,3.582-8,8v3.716
		c0,2.715-0.651,9.176-6.622,10.504l-65.291,13.96c-0.163,0.035-0.325,0.075-0.485,0.12c-14.224,3.985-26.325,12.805-34.997,25.506
		C8.358,444.231,4,458.223,4,472.038v15.522C4,501.036,16.011,512,30.775,512h330.45C375.989,512,388,501.036,388,487.56v-15.522
		c0-13.815-4.358-27.807-12.271-39.398C367.057,419.939,354.956,411.119,340.732,407.134z M372,487.56
		c0,4.575-4.935,8.44-10.775,8.44H30.775C24.935,496,20,492.135,20,487.56v-15.522c0-19.578,12.142-42.799,35.354-49.432
		l49.812-10.651c19.824,27.068,54.183,43.719,90.834,43.719c36.655,0,71.01-16.651,90.834-43.719l49.813,10.651
		C359.858,429.239,372,452.46,372,472.038V487.56z"/>
	<path d="M452,0H276c-30.878,0-56,25.122-56,56v96c0,25.064,16.461,46.631,40,53.614v23.072c0,6.495,3.877,12.297,9.877,14.782
		c1.991,0.825,4.075,1.226,6.139,1.226c4.155,0,8.229-1.626,11.297-4.694l32-32H452c30.878,0,56-25.122,56-56V56
		C508,25.122,482.878,0,452,0z M492,152c0,22.056-17.944,40-40,40H316c-2.122,0-4.157,0.843-5.657,2.343L276,228.679v-29.406
		c0-3.901-2.814-7.233-6.66-7.887C250.333,188.156,236,171.224,236,152V56c0-22.056,17.944-40,40-40h176c22.056,0,40,17.944,40,40
		V152z"/>
	<path d="M452,48H276c-4.418,0-8,3.582-8,8s3.582,8,8,8h176c4.418,0,8-3.582,8-8S456.418,48,452,48z"/>
	<path d="M276,112h16c4.418,0,8-3.582,8-8s-3.582-8-8-8h-16c-4.418,0-8,3.582-8,8S271.582,112,276,112z"/>
	<path d="M452,96H324c-4.418,0-8,3.582-8,8s3.582,8,8,8h128c4.418,0,8-3.582,8-8S456.418,96,452,96z"/>
	<path d="M452,144H276c-4.418,0-8,3.582-8,8s3.582,8,8,8h176c4.418,0,8-3.582,8-8S456.418,144,452,144z"/>
</g>
</svg>