<?xml version="1.0" encoding="utf-8"?>
<!-- Generator: Adobe Illustrator 24.1.0, SVG Export Plug-In . SVG Version: 6.00 Build 0)  -->
<svg version="1.1" id="Capa_1" xmlns="http://www.w3.org/2000/svg" xmlns:xlink="http://www.w3.org/1999/xlink" x="0px" y="0px"
	 viewBox="0 0 31.9 32" style="enable-background:new 0 0 31.9 32;" xml:space="preserve">
<style type="text/css">
	.st0{fill:#E91675;}
	.st1{fill:#FFFFFF;}
</style>
<g>
	<path class="st0" d="M0,11.3l0,2.3l0,2.3l0,2.3l0,2.3l0,2.3l0,2.3l0,2.3l0,2.3h2.3V32h2.3h2.3v-2.3h2.3v-2.3h2.3v2.3h2.3V32h2.3
		h2.3v-2.3h2.3v-2.3H23v2.3h2.3V32h2.3h2.3v-2.3h2.3v-2.3v-2.3v-2.3v-2.3v-2.3v-2.3v-2.3v-2.3h-2.3V9V6.7h-2.3V4.4h-2.3V2.2H23h-2.3
		v-2.3h-2.3h-2.3h-2.3h-2.3v2.3H9.2H6.9v2.3H4.6v2.3H2.3V9v2.3H0z"/>
	
		<rect x="4.6" y="6.7" transform="matrix(-1 -4.515955e-11 4.515955e-11 -1 11.4796 15.7857)" class="st1" width="2.3" height="2.3"/>
	
		<rect x="6.9" y="6.7" transform="matrix(-1 -4.476343e-11 4.476343e-11 -1 16.0714 15.7857)" class="st1" width="2.3" height="2.3"/>
	<rect x="6.9" y="9" transform="matrix(-1 -4.476343e-11 4.476343e-11 -1 16.0714 20.3776)" class="st1" width="2.3" height="2.3"/>
	<rect x="9.2" y="9" transform="matrix(-1 -4.515955e-11 4.515955e-11 -1 20.6633 20.3776)" class="st1" width="2.3" height="2.3"/>
	<rect x="2.3" y="9" transform="matrix(-1 -4.476343e-11 4.476343e-11 -1 6.8878 20.3776)" class="st1" width="2.3" height="2.3"/>
	<rect x="4.6" y="9" transform="matrix(-1 -4.515955e-11 4.515955e-11 -1 11.4796 20.3776)" class="st1" width="2.3" height="2.3"/>
	
		<rect x="6.9" y="11.3" transform="matrix(-1 -4.476343e-11 4.476343e-11 -1 16.0714 24.9694)" class="st1" width="2.3" height="2.3"/>
	
		<rect x="9.2" y="11.3" transform="matrix(-1 -4.555568e-11 4.555568e-11 -1 20.6633 24.9694)" class="st1" width="2.3" height="2.3"/>
	
		<rect x="6.9" y="13.6" transform="matrix(-1 -4.476343e-11 4.476343e-11 -1 16.0714 29.5612)" class="st1" width="2.3" height="2.3"/>
	
		<rect x="9.2" y="13.6" transform="matrix(-1 -4.515955e-11 4.515955e-11 -1 20.6633 29.5612)" class="st1" width="2.3" height="2.3"/>
	
		<rect x="4.6" y="15.9" transform="matrix(-1 -4.595181e-11 4.595181e-11 -1 11.4796 34.1531)" class="st1" width="2.3" height="2.3"/>
	
		<rect x="6.9" y="15.9" transform="matrix(-1 -4.515955e-11 4.515955e-11 -1 16.0714 34.1531)" class="st1" width="2.3" height="2.3"/>
	
		<rect x="18.4" y="6.7" transform="matrix(-1 -4.476343e-11 4.476343e-11 -1 39.0306 15.7857)" class="st1" width="2.3" height="2.3"/>
	
		<rect x="20.7" y="6.7" transform="matrix(-1 -4.476343e-11 4.476343e-11 -1 43.6224 15.7857)" class="st1" width="2.3" height="2.3"/>
	
		<rect x="20.7" y="9" transform="matrix(-1 -4.476343e-11 4.476343e-11 -1 43.6224 20.3776)" class="st1" width="2.3" height="2.3"/>
	<rect x="23" y="9" transform="matrix(-1 -4.476343e-11 4.476343e-11 -1 48.2143 20.3776)" class="st1" width="2.3" height="2.3"/>
	
		<rect x="16.1" y="9" transform="matrix(-1 -4.476343e-11 4.476343e-11 -1 34.4388 20.3776)" class="st1" width="2.3" height="2.3"/>
	
		<rect x="18.4" y="9" transform="matrix(-1 -4.476343e-11 4.476343e-11 -1 39.0306 20.3776)" class="st1" width="2.3" height="2.3"/>
	
		<rect x="20.7" y="11.3" transform="matrix(-1 -4.476343e-11 4.476343e-11 -1 43.6224 24.9694)" class="st1" width="2.3" height="2.3"/>
	
		<rect x="23" y="11.3" transform="matrix(-1 -4.476343e-11 4.476343e-11 -1 48.2143 24.9694)" class="st1" width="2.3" height="2.3"/>
	
		<rect x="20.7" y="13.6" transform="matrix(-1 -4.476343e-11 4.476343e-11 -1 43.6224 29.5612)" class="st1" width="2.3" height="2.3"/>
	
		<rect x="23" y="13.6" transform="matrix(-1 -4.476343e-11 4.476343e-11 -1 48.2143 29.5612)" class="st1" width="2.3" height="2.3"/>
	
		<rect x="18.4" y="15.9" transform="matrix(-1 -4.436730e-11 4.436730e-11 -1 39.0306 34.1531)" class="st1" width="2.3" height="2.3"/>
	
		<rect x="20.7" y="15.9" transform="matrix(-1 -4.515955e-11 4.515955e-11 -1 43.6224 34.1531)" class="st1" width="2.3" height="2.3"/>
	<rect x="18.4" y="11.3" transform="matrix(-1 -4.476343e-11 4.476343e-11 -1 39.0306 24.9694)" width="2.3" height="2.3"/>
	<rect x="16.1" y="11.3" transform="matrix(-1 -4.476343e-11 4.476343e-11 -1 34.4388 24.9694)" width="2.3" height="2.3"/>
	<rect x="4.6" y="11.3" transform="matrix(-1 -4.515955e-11 4.515955e-11 -1 11.4796 24.9694)" width="2.3" height="2.3"/>
	<rect x="2.3" y="11.3" transform="matrix(-1 -4.476343e-11 4.476343e-11 -1 6.8878 24.9694)" width="2.3" height="2.3"/>
	<rect x="18.4" y="13.6" transform="matrix(-1 -4.476343e-11 4.476343e-11 -1 39.0306 29.5612)" width="2.3" height="2.3"/>
	<rect x="16.1" y="13.6" transform="matrix(-1 -4.476343e-11 4.476343e-11 -1 34.4388 29.5612)" width="2.3" height="2.3"/>
	<rect x="4.6" y="13.6" transform="matrix(-1 -4.555568e-11 4.555568e-11 -1 11.4796 29.5612)" width="2.3" height="2.3"/>
	<rect x="2.3" y="13.6" transform="matrix(-1 -4.476343e-11 4.476343e-11 -1 6.8878 29.5612)" width="2.3" height="2.3"/>
</g>
</svg>
